<svg width="497" height="176" viewBox="0 0 497 176" fill="none" xmlns="http://www.w3.org/2000/svg">
<path d="M3.05042 168.327H489V59.5302H144.529V94.9405" stroke="#ED428B" stroke-width="15"/>
<path d="M125.6 50.6L101.38 143H72.96L61.62 86.86L50.7 143H22.28L0.86 50.6H24.52L40.48 129.28L56.16 50.6H75.2L91.02 129.28L106.7 50.6H125.6ZM154.354 132.08C155.567 132.64 156.174 133.783 156.174 135.51C156.174 137.423 155.544 139.057 154.284 140.41C153.024 141.763 151.39 142.79 149.384 143.49C147.424 144.19 145.394 144.54 143.294 144.54C137.694 144.54 133.447 142.837 130.554 139.43C127.707 136.023 126.284 131.357 126.284 125.43C126.284 119.317 127.824 114.533 130.904 111.08C134.03 107.627 138.534 105.9 144.414 105.9C148.194 105.9 151.32 106.763 153.794 108.49C156.267 110.217 157.504 112.76 157.504 116.12C157.504 120.273 156.034 123.143 153.094 124.73C150.154 126.317 146.14 127.11 141.054 127.11C139.467 127.11 138.23 127.04 137.344 126.9C137.484 130.213 138.114 132.827 139.234 134.74C140.4 136.653 142.337 137.61 145.044 137.61C147.05 137.61 148.87 137.143 150.504 136.21C152.184 135.23 153.467 133.853 154.354 132.08ZM143.364 110.03C141.124 110.03 139.56 111.407 138.674 114.16C137.834 116.867 137.39 120.04 137.344 123.68H138.744C141.684 123.727 143.9 123.19 145.394 122.07C146.934 120.95 147.704 119.037 147.704 116.33C147.704 114.557 147.33 113.063 146.584 111.85C145.884 110.637 144.81 110.03 143.364 110.03ZM174.097 101C174.097 105.76 173.864 109.143 173.397 111.15C174.377 109.423 175.73 108.117 177.457 107.23C179.184 106.343 181.097 105.9 183.197 105.9C187.817 105.9 191.154 107.65 193.207 111.15C195.26 114.603 196.287 119.107 196.287 124.66C196.287 130.82 194.794 135.673 191.807 139.22C188.867 142.767 184.504 144.54 178.717 144.54C176.244 144.54 173.584 144.213 170.737 143.56C167.89 142.907 165.44 142.043 163.387 140.97V94L174.097 92.88V101ZM174.097 138.66C175.59 139.78 177.27 140.34 179.137 140.34C181.657 140.34 183.29 138.917 184.037 136.07C184.784 133.223 185.157 129.537 185.157 125.01C185.157 120.903 184.784 117.59 184.037 115.07C183.337 112.503 181.844 111.22 179.557 111.22C177.27 111.22 175.777 112.27 175.077 114.37C174.424 116.47 174.097 119.247 174.097 122.7V138.66ZM207.874 91.48C209.787 91.48 211.304 91.9233 212.424 92.81C213.59 93.6967 214.174 94.9333 214.174 96.52C214.174 98.1533 213.567 99.4133 212.354 100.3C211.14 101.14 209.577 101.56 207.664 101.56C205.797 101.56 204.257 101.14 203.044 100.3C201.877 99.4133 201.294 98.2 201.294 96.66C201.294 95.0267 201.9 93.7667 203.114 92.88C204.374 91.9467 205.96 91.48 207.874 91.48ZM212.914 136C212.914 137.307 213.077 138.45 213.404 139.43C213.73 140.41 214.29 141.273 215.084 142.02C214.57 142.673 213.777 143.163 212.704 143.49C211.677 143.863 210.65 144.05 209.624 144.05C207.197 144.05 205.354 143.443 204.094 142.23C202.834 140.97 202.204 139.127 202.204 136.7V107.3H212.914V136ZM221.141 107.3L229.891 106.46L230.381 112.76C232.154 108.187 235.817 105.9 241.371 105.9C245.431 105.9 248.301 106.997 249.981 109.19C251.707 111.383 252.571 114.673 252.571 119.06V136C252.571 137.307 252.734 138.45 253.061 139.43C253.387 140.41 253.947 141.273 254.741 142.02C254.227 142.673 253.434 143.163 252.361 143.49C251.334 143.863 250.307 144.05 249.281 144.05C246.854 144.05 245.011 143.443 243.751 142.23C242.491 140.97 241.861 139.127 241.861 136.7V119.62C241.861 116.867 241.604 114.79 241.091 113.39C240.577 111.943 239.364 111.22 237.451 111.22C235.164 111.22 233.647 112.27 232.901 114.37C232.201 116.47 231.851 119.247 231.851 122.7V143H221.141V107.3ZM261.499 143.98V110.45H256.669V107.3H261.499L261.709 103.73C261.942 99.81 263.389 96.9867 266.049 95.26C268.709 93.4867 272.256 92.6 276.689 92.6C279.956 92.6 282.802 93.0667 285.229 94C287.656 94.8867 288.869 96.4733 288.869 98.76C288.869 100.393 288.239 101.63 286.979 102.47C285.719 103.31 284.132 103.73 282.219 103.73C280.679 103.73 279.582 103.497 278.929 103.03C279.209 101.817 279.349 100.72 279.349 99.74C279.349 98.5267 279.092 97.57 278.579 96.87C278.066 96.17 277.272 95.82 276.199 95.82C274.519 95.82 273.422 96.4967 272.909 97.85C272.396 99.2033 272.139 101.047 272.139 103.38V107.3H279.069V110.45H272.209V143L261.499 143.98ZM298.456 111.64C296.776 111.64 295.703 112.69 295.236 114.79C294.77 116.843 294.536 119.503 294.536 122.77V143H283.826V107.3L292.576 106.46L293.066 112.76C293.813 110.613 295.026 108.933 296.706 107.72C298.386 106.507 300.37 105.9 302.656 105.9C305.316 105.9 307.416 106.67 308.956 108.21C310.543 109.703 311.336 111.757 311.336 114.37C311.336 116.563 310.753 118.243 309.586 119.41C308.42 120.577 306.763 121.16 304.616 121.16C304.103 121.16 303.496 121.09 302.796 120.95C302.096 120.81 301.583 120.623 301.256 120.39C301.583 119.363 301.746 118.15 301.746 116.75C301.746 113.343 300.65 111.64 298.456 111.64ZM334.953 139.85C334.113 141.483 332.853 142.673 331.173 143.42C329.493 144.167 327.603 144.54 325.503 144.54C321.91 144.54 318.876 143.607 316.403 141.74C313.93 139.873 312.693 137.283 312.693 133.97C312.693 129.583 314.723 126.597 318.783 125.01C322.843 123.423 327.953 122.63 334.113 122.63V116.54C334.113 114.347 333.81 112.667 333.203 111.5C332.596 110.333 331.406 109.75 329.633 109.75C327.953 109.75 326.646 110.263 325.713 111.29C324.78 112.27 324.313 113.623 324.313 115.35C324.313 116.097 324.453 117.217 324.733 118.71C324.406 118.943 323.916 119.13 323.263 119.27C322.61 119.363 322.003 119.41 321.443 119.41C319.53 119.41 317.943 118.967 316.683 118.08C315.423 117.147 314.793 115.817 314.793 114.09C314.793 111.43 316.286 109.4 319.273 108C322.306 106.6 325.923 105.9 330.123 105.9C335.163 105.9 338.873 106.903 341.253 108.91C343.633 110.917 344.823 114.3 344.823 119.06V136C344.823 137.307 344.986 138.45 345.313 139.43C345.64 140.41 346.2 141.273 346.993 142.02C346.48 142.673 345.71 143.163 344.683 143.49C343.703 143.863 342.7 144.05 341.673 144.05C339.946 144.05 338.5 143.7 337.333 143C336.166 142.253 335.373 141.203 334.953 139.85ZM328.793 139.71C330.613 139.71 331.943 138.963 332.783 137.47C333.67 135.977 334.113 134.157 334.113 132.01V126.13C327.206 126.13 323.753 128.65 323.753 133.69C323.753 135.463 324.173 136.91 325.013 138.03C325.9 139.15 327.16 139.71 328.793 139.71ZM352.596 107.3L361.346 106.46L361.836 112.76C363.609 108.187 367.272 105.9 372.826 105.9C375.532 105.9 377.702 106.413 379.336 107.44C380.969 108.42 382.182 109.913 382.976 111.92C384.842 107.907 388.249 105.9 393.196 105.9C397.209 105.9 400.056 106.997 401.736 109.19C403.416 111.383 404.256 114.673 404.256 119.06V136C404.256 137.307 404.419 138.45 404.746 139.43C405.072 140.41 405.632 141.273 406.426 142.02C405.912 142.673 405.119 143.163 404.046 143.49C403.019 143.863 401.992 144.05 400.966 144.05C398.539 144.05 396.696 143.443 395.436 142.23C394.176 140.97 393.546 139.127 393.546 136.7V119.62C393.546 116.913 393.289 114.837 392.776 113.39C392.262 111.943 391.096 111.22 389.276 111.22C387.129 111.22 385.706 112.293 385.006 114.44C384.352 116.587 384.026 119.34 384.026 122.7V143H373.316V119.62C373.316 116.867 373.059 114.79 372.546 113.39C372.032 111.943 370.819 111.22 368.906 111.22C366.619 111.22 365.102 112.27 364.356 114.37C363.656 116.47 363.306 119.247 363.306 122.7V143H352.596V107.3ZM438.25 132.08C439.463 132.64 440.07 133.783 440.07 135.51C440.07 137.423 439.44 139.057 438.18 140.41C436.92 141.763 435.287 142.79 433.28 143.49C431.32 144.19 429.29 144.54 427.19 144.54C421.59 144.54 417.343 142.837 414.45 139.43C411.603 136.023 410.18 131.357 410.18 125.43C410.18 119.317 411.72 114.533 414.8 111.08C417.927 107.627 422.43 105.9 428.31 105.9C432.09 105.9 435.217 106.763 437.69 108.49C440.163 110.217 441.4 112.76 441.4 116.12C441.4 120.273 439.93 123.143 436.99 124.73C434.05 126.317 430.037 127.11 424.95 127.11C423.363 127.11 422.127 127.04 421.24 126.9C421.38 130.213 422.01 132.827 423.13 134.74C424.297 136.653 426.233 137.61 428.94 137.61C430.947 137.61 432.767 137.143 434.4 136.21C436.08 135.23 437.363 133.853 438.25 132.08ZM427.26 110.03C425.02 110.03 423.457 111.407 422.57 114.16C421.73 116.867 421.287 120.04 421.24 123.68H422.64C425.58 123.727 427.797 123.19 429.29 122.07C430.83 120.95 431.6 119.037 431.6 116.33C431.6 114.557 431.227 113.063 430.48 111.85C429.78 110.637 428.707 110.03 427.26 110.03Z" fill="#0073B4"/>
</svg>
